<svg class="icon--dwm" width="445" height="145" viewBox="0 0 445 145" fill="none" xmlns="http://www.w3.org/2000/svg">
<g clip-path="url(#clip0)">
<path fill-rule="evenodd" clip-rule="evenodd" d="M34.6866 0H0V122.017H36.4161C71.2963 122.017 95.1947 102.37 95.1947 60.4529C95.1947 18.5358 71.2842 0 34.6745 0H34.6866ZM66.0957 60.4529C66.0957 89.6462 52.7919 99.7479 33.1386 99.7479H28.5185V22.2696H33.1386C52.7919 22.2696 66.0957 31.2475 66.0957 60.4529ZM102.887 0H132.373L136.219 64.9358C136.412 75.4242 136.606 84.5833 136.799 95.6275H137.573C139.303 84.5833 141.613 75.2308 143.742 64.9358L152.208 30.885H170.325L178.223 64.9358C180.351 75.0496 182.456 84.4021 184.391 95.6275H185.165C185.358 84.4021 185.552 75.0496 185.939 64.9358L189.398 0H216.949L201.54 122.017H171.099L163.77 84.2087C162.234 76.5358 160.698 68.3071 160.311 61.0087H159.73C158.995 68.7876 157.905 76.5289 156.465 84.2087L149.136 122.017H119.65L102.887 0ZM228.898 0H258.565L270.902 43.2342L275.135 60.0783H275.909L280.142 43.2342L292.49 0H322.17V122.017H298.247V84.2087C298.247 70.5546 300.751 40.7933 301.912 27.695H301.331L291.704 60.2596L282.065 89.6462H268.193L258.36 60.2596L249.313 27.695H248.733C250.075 40.7933 252.397 70.5546 252.397 84.2087V122.017H228.886V0" fill="#ffffff"/>
<path fill-rule="evenodd" clip-rule="evenodd" d="M357.51 145H445.001V122.018H357.51V145Z" fill="#ffe85f"/>
</g>
<defs>
<clipPath id="clip0">
<rect width="445pt" height="145pt" fill="white"/>
</clipPath>
</defs>
</svg>